<?xml version="1.0" encoding="UTF-8"?>
<svg width="395px" height="127px" viewBox="0 0 395 127" version="1.1" xmlns="http://www.w3.org/2000/svg" xmlns:xlink="http://www.w3.org/1999/xlink">
    <!-- Generator: Sketch 50.2 (55047) - http://www.bohemiancoding.com/sketch -->
    <title>Group 2</title>
    <desc>Created with Sketch.</desc>
    <defs></defs>
    <g id="Page-1" stroke="none" stroke-width="1" fill="none" fill-rule="evenodd">
        <g id="logo" transform="translate(-241.000000, -254.000000)">
            <g id="Group-2" transform="translate(241.000000, 254.000000)">
                <g id="script" fill-rule="nonzero">
                    <path d="M44.8027168,12 L124,12 C123.933613,5.58458039 119.123866,1 113.197283,1 L34,1 C39.9265827,1 44.7363296,5.58458039 44.8027168,12 Z" id="Shape" fill="#E2D9C5"></path>
                    <path d="M103.194587,11.6350745 C103.194587,5.76140729 108.032256,1 114,1 L34.8054129,1 C28.8376692,1 24,5.76140729 24,11.6350745 L24,99 L92.3891742,99 C98.3569179,99 103.194587,94.2385927 103.194587,88.3649255 L103.194587,11.6350745 Z" id="Shape" fill="#F2EBDA"></path>
                    <g id="Group" transform="translate(1.000000, 1.000000)" fill="#E2D9C5">
                        <path d="M99.3393512,0.00379239598 C93.3425366,0.00379239598 88.4813016,4.79409418 88.4813016,10.7034056 L88.4813016,87.8991428 C88.4813016,93.8084542 83.6200666,98.598756 77.6232521,98.598756 L90.8073668,98.598756 C96.8041813,98.598756 101.665416,93.8084542 101.665416,87.8991428 L101.665416,10.7034056 C101.665416,4.79409418 106.526651,0.00379239598 112.523466,0.00379239598 L99.3393512,0.00379239598 Z" id="Shape"></path>
                        <path d="M79.7099373,87.2620203 L0.129567935,87.2620203 C0.196276179,93.8736834 5.02928845,98.5985032 10.9845386,98.5985032 L90.564908,98.5985032 C84.6094012,98.5982503 79.7766455,93.8736834 79.7099373,87.2620203 Z" id="Shape"></path>
                    </g>
                    <path d="M74,70 C76.1848609,63.1370554 78.1497559,56.1279074 82.7918643,50.7741264 C92.9313646,39.0803884 113.257017,35.6447352 128,36.0283608 C123.386986,39.8765255 119.365899,43.7685258 114.705732,48.8633468 C109.481228,54.5754148 98.0816268,62.1762178 92.5957724,63.8807416 C84.0517146,66.5357143 80.0985987,66.9793922 74,70 Z" id="Shape" fill="#DDA064"></path>
                    <path d="M74,70 C76.1848609,63.1320784 113.257017,35.6200747 128,36.0039784 C123.386986,39.8549337 119.365899,43.7497565 114.705732,48.8482723 C109.481228,54.5644826 98.0816268,62.1707976 92.5957724,63.8765576 C84.0517146,66.533202 80.0985987,66.9772017 74,70 Z" id="Shape" fill="#B57947"></path>
                    <path d="M94,21 C94,19.8951366 93.1541076,19 92.1105885,19 L51.8894115,19 C50.8458924,19 50,19.8954031 50,21 C50,22.1045969 50.8458924,23 51.8894115,23 L92.1103368,23 C93.1538558,23 94,22.1045969 94,21 Z" id="Shape" fill="#292A35"></path>
                    <path d="M34.8615438,23 L41.1384562,23 C42.166584,23 43,22.1045969 43,21 C43,19.8954031 42.166584,19 41.1384562,19 L34.8615438,19 C33.833416,19 33,19.8954031 33,21 C33,22.1045969 33.833168,23 34.8615438,23 Z" id="Shape" fill="#000000"></path>
                    <path d="M34.9262317,78 C33.8623769,78 33,78.8954031 33,80 C33,81.1048634 33.8623769,82 34.9262317,82 L55.0737683,82 C56.1376231,82 57,81.1045969 57,80 C57,78.8951366 56.1376231,78 55.0737683,78 L34.9262317,78 Z" id="Shape" fill="#000000"></path>
                    <path d="M66,62 C66,60.8951366 65.1130026,60 64.0187751,60 L34.9812249,60 C33.8869974,60 33,60.8954031 33,62 C33,63.1048634 33.8869974,64 34.9812249,64 L64.0187751,64 C65.1127386,64 66,63.1045969 66,62 Z" id="Shape" fill="#000000"></path>
                    <path d="M79,42 C79,40.8951366 78.1343553,40 77.0664691,40 L34.9335309,40 C33.8656447,40 33,40.8954031 33,42 C33,43.1045969 33.8656447,43.9999999 34.9335309,43.9999999 L77.0664691,43.9999999 C78.1343553,44.0002664 79,43.1048634 79,42 Z" id="Shape" fill="#000000"></path>
                    <path d="M101.736059,65.9230777 C100.690309,65.9230777 99.8426084,66.7859351 99.8426084,67.8503827 L99.8426084,91.2048002 C99.8426084,96.1349005 95.9023133,100.14539 91.0593179,100.14539 L90.820902,100.14539 C85.8686641,100.14539 82.0938726,96.0152304 82.0403867,90.5386538 C82.0300428,89.4816534 81.1853695,88.6303521 80.146936,88.6303521 L25.376381,88.6303521 L25.376381,12.7951998 C25.376381,7.86509951 29.316676,3.8546101 34.1596715,3.8546101 L103.428433,3.8546101 C103.372929,3.91239074 103.320452,3.9729962 103.265957,4.03206084 C103.199857,4.10370883 103.132999,4.1745864 103.068413,4.2475184 C103.000042,4.32481604 102.934193,4.40416811 102.867841,4.48326337 C102.804011,4.5590202 102.739676,4.63400662 102.677613,4.71130426 C102.613278,4.79142674 102.551719,4.87360363 102.48915,4.95526693 C102.4286,5.03436219 102.367546,5.11268705 102.308762,5.19332313 C102.248716,5.27601363 102.191194,5.36050175 102.132914,5.44473307 C102.075644,5.52742358 102.017617,5.60960047 101.962113,5.69357499 C101.906356,5.77857672 101.853123,5.86537607 101.799384,5.95191861 C101.745646,6.03794755 101.691151,6.12320608 101.639431,6.21051904 C101.587459,6.2983456 101.538515,6.38796978 101.488813,6.47708035 C101.439112,6.56567732 101.388149,6.65376068 101.340465,6.74389846 C101.29253,6.83403625 101.248127,6.92622846 101.202462,7.01790706 C101.156797,7.10932886 101.109871,7.19998025 101.066476,7.29242926 C101.02283,7.38539187 100.982715,7.48015211 100.941087,7.57414193 C100.899711,7.66787496 100.857074,7.76083757 100.817969,7.85559781 C100.778359,7.95138525 100.742534,8.04897032 100.705194,8.14578498 C100.66836,8.24131562 100.630264,8.33607586 100.5957,8.43263371 C100.560127,8.53175959 100.52859,8.6326831 100.49554,8.73309299 C100.463751,8.82965085 100.430196,8.92518149 100.400426,9.02276656 C100.369142,9.12548768 100.342146,9.23000642 100.313385,9.33401156 C100.286642,9.43108302 100.257881,9.52738407 100.233156,9.62548274 C100.206161,9.73333992 100.183455,9.84273791 100.158982,9.9516223 C100.137538,10.0474097 100.113822,10.1426836 100.094648,10.2392414 C100.071942,10.3524915 100.054029,10.4670255 100.03435,10.5813028 C100.018204,10.6758062 99.9995339,10.7692824 99.9854056,10.8642995 C99.9672406,10.9862808 99.9541214,11.109803 99.9392362,11.2328115 C99.9286399,11.3216653 99.9152684,11.4094918 99.9064382,11.4988592 C99.8928144,11.6365055 99.8844888,11.7756926 99.875154,11.9146229 C99.8701082,11.9908934 99.8620348,12.0666502 99.8582505,12.1431774 C99.8476542,12.3591486 99.8421038,12.5766606 99.8421038,12.7954566 L99.8421038,13.4423428 L99.8421038,29.901605 C99.8421038,30.9663094 100.689805,31.8289101 101.735555,31.8289101 C102.781305,31.8289101 103.629005,30.9660526 103.629005,29.901605 L103.629005,15.3696479 L123.106698,15.3696479 C123.612038,15.3696479 124.096691,15.1639488 124.45217,14.7985184 C124.807902,14.4328313 125.005194,13.9377154 124.999896,13.4233394 C124.925218,5.77061583 119.522386,0 112.412296,0 L34.1589146,0 C27.2274468,0 21.5884703,5.7400563 21.5884703,12.7954566 L21.5884703,88.6303521 L1.8933025,88.6303521 C1.3879618,88.6303521 0.903309048,88.8360512 0.547829749,89.2014816 C0.192098158,89.5671687 -0.0051941139,90.0622846 0.000104016168,90.5766606 C0.074782421,98.2293842 5.47761364,104 12.5675208,104 L90.820902,104 L91.0593179,104 C97.9907858,104 103.629762,98.2599437 103.629762,91.2045434 L103.629762,67.8501259 C103.629762,66.7856783 102.781809,65.9230777 101.736059,65.9230777 Z M103.726138,11.4744629 C103.734716,11.4156551 103.745312,11.3573609 103.755151,11.2990666 C103.768775,11.2168897 103.782651,11.1347128 103.798545,11.0530495 C103.810655,10.9909033 103.824279,10.9292706 103.837651,10.8676379 C103.854302,10.7911107 103.871206,10.7148402 103.889623,10.6390834 C103.905265,10.5753963 103.921916,10.511966 103.93882,10.4487925 C103.958246,10.3766309 103.978177,10.3044694 103.999118,10.2330782 C104.018039,10.1683639 104.03797,10.1041632 104.058406,10.0402193 C104.080103,9.97190972 104.10281,9.90411378 104.126273,9.83631784 C104.148979,9.77083313 104.171938,9.70534841 104.196158,9.64063411 C104.219873,9.57669021 104.24485,9.51351672 104.270079,9.45008642 C104.29657,9.38331769 104.32306,9.31680577 104.351317,9.25080745 C104.376294,9.1919996 104.402785,9.13396217 104.429023,9.07592474 C104.460055,9.00735839 104.490834,8.93827843 104.52338,8.8707393 C104.5476,8.82040595 104.573586,8.77109981 104.598815,8.72128006 C104.636155,8.64732086 104.672989,8.57336165 104.712347,8.50068645 C104.727484,8.47243815 104.744136,8.44521705 104.759525,8.41722554 C104.934364,8.1021285 105.126358,7.79807398 105.336265,7.50814361 C105.338283,7.50531878 105.340049,7.50275075 105.342067,7.49992592 C105.409682,7.40696331 105.479566,7.31579831 105.55046,7.22540372 C105.561814,7.21102277 105.572662,7.19638501 105.584015,7.18200405 C105.653396,7.0946911 105.725046,7.00917576 105.797454,6.92468764 C105.810826,6.90902267 105.824197,6.89310089 105.837821,6.87743592 C105.91149,6.792691 105.986925,6.70974369 106.063875,6.6278236 C106.076489,6.61446985 106.088851,6.6008593 106.101718,6.58750556 C106.181443,6.50378784 106.262681,6.42135414 106.345432,6.34071806 C106.354767,6.33172996 106.364102,6.32274186 106.373437,6.31349696 C106.46073,6.22926564 106.549536,6.14657514 106.640362,6.06593906 C106.643389,6.06311423 106.646669,6.0605462 106.649696,6.05772137 C107.80923,5.02973974 109.236193,4.30478542 110.810999,4.00638056 C110.811756,4.00612376 110.812765,4.00612376 110.813522,4.00586696 C110.942443,3.98147069 111.072626,3.95989925 111.203565,3.94140945 C111.211386,3.94038224 111.219207,3.93935503 111.227028,3.93832782 C111.351913,3.92086523 111.477554,3.90597067 111.603953,3.89390093 C111.623127,3.89210331 111.642553,3.8910761 111.66198,3.88953529 C111.777782,3.87926317 111.893836,3.87053188 112.010899,3.86488222 C112.078514,3.86180058 112.146632,3.86128698 112.214751,3.85948936 C112.287916,3.85769174 112.360828,3.8543533 112.434497,3.8543533 C116.779973,3.8543533 120.218964,7.03485604 121.032606,11.5145242 L103.722353,11.5145242 C103.72311,11.5014272 103.724372,11.4878167 103.726138,11.4744629 Z M12.5672685,100.14539 C8.22179272,100.14539 4.78280172,96.9648872 3.96916032,92.485219 L23.482678,92.485219 L78.3854339,92.485219 C78.4114199,92.6847548 78.441695,92.8822362 78.4752498,93.0784335 C78.4863506,93.144175 78.4999744,93.2086325 78.5120844,93.2741172 C78.5360521,93.4038027 78.5600199,93.5334881 78.5872674,93.6613759 C78.6034141,93.7381599 78.6218314,93.8136599 78.6389872,93.8896736 C78.6652256,94.004978 78.6917162,94.1202825 78.7207298,94.2340461 C78.7409132,94.3139118 78.7628625,94.3930071 78.7843074,94.4721023 C78.8138255,94.5804731 78.843596,94.6885871 78.8753847,94.7956739 C78.8991002,94.8760531 78.9240771,94.9559188 78.9493063,95.0355277 C78.9821042,95.1397896 79.0161636,95.243538 79.0512322,95.3465159 C79.0782274,95.4258679 79.1057273,95.5049632 79.1342362,95.5835449 C79.1710709,95.6857524 79.2091669,95.7869327 79.2482722,95.8875994 C79.2780426,95.9641266 79.3075608,96.0406539 79.3383404,96.1164107 C79.3799686,96.2183614 79.4233628,96.3190281 79.4670093,96.4196948 C79.4982935,96.4918564 79.5293254,96.5642748 79.561871,96.635666 C79.6098065,96.7409551 79.6602649,96.8447034 79.710471,96.948195 C79.7417552,97.0123957 79.7717779,97.07711 79.8040713,97.1407971 C79.8656305,97.2622648 79.9299649,97.3816781 79.9948039,97.5008346 C80.0182671,97.5442343 80.0407211,97.5884044 80.0646888,97.6312904 C80.154757,97.7925626 80.2478527,97.9512667 80.3439759,98.1074028 C80.3664299,98.1438688 80.3903976,98.178794 80.4131039,98.2150032 C80.4880346,98.3344165 80.5639745,98.4530594 80.6424373,98.5693911 C80.6787673,98.6230629 80.7166111,98.6751938 80.7534457,98.728352 C80.8210599,98.8254235 80.8886742,98.9222381 80.9588113,99.0169984 C81.0009441,99.0740086 81.044086,99.129478 81.0869756,99.1857178 C81.1545898,99.2743148 81.2227087,99.3626549 81.2923412,99.4489407 C81.3382583,99.5056941 81.3849324,99.5616771 81.4316064,99.6176601 C81.5012389,99.7013778 81.5718807,99.7840683 81.6435316,99.8657316 C81.6917193,99.9206874 81.7406639,99.9748728 81.7898609,100.028801 C81.8249294,100.067322 81.8587366,100.107383 81.8943097,100.14539 L12.5672685,100.14539 Z" id="Shape" fill="#000000"></path>
                    <path d="M130.998271,35.9456171 C130.998012,35.9232228 130.997493,35.9008286 130.996715,35.878177 C130.988937,35.6964492 130.95601,35.521414 130.900786,35.3556453 C130.898194,35.3474084 130.897157,35.338914 130.894305,35.3309344 C130.891971,35.3242419 130.888082,35.3180642 130.885749,35.3113717 C130.855155,35.2266855 130.819895,35.144316 130.778412,35.0655501 C130.773227,35.0557687 130.767264,35.0467596 130.762078,35.0369782 C130.723707,34.9674789 130.681187,34.9008111 130.634778,34.8367173 C130.624926,34.8230748 130.615592,34.8089176 130.605481,34.7955325 C130.554405,34.7286073 130.498922,34.6652857 130.439549,34.6055678 C130.426586,34.5924401 130.412845,34.5803421 130.399622,34.5677293 C130.343621,34.5141891 130.284508,34.4639952 130.222283,34.4174049 C130.213987,34.4112272 130.206209,34.4042772 130.197653,34.3980995 C130.127651,34.3476482 130.0535,34.3026024 129.977016,34.2614176 C129.962238,34.253438 129.94746,34.2462307 129.932422,34.238766 C129.854383,34.1996405 129.774528,34.1638612 129.690785,34.1352893 C129.690266,34.1350319 129.689748,34.1347744 129.689229,34.1347744 C129.606005,34.1064599 129.519668,34.0850953 129.431777,34.0678492 C129.412332,34.0639881 129.392887,34.0606419 129.373182,34.057553 C129.285291,34.0431383 129.196103,34.0323273 129.104581,34.0300107 C112.823102,33.6117279 91.5927261,37.502916 80.8593119,49.6678657 C76.1619038,54.9917687 73.9944277,61.74607 71.8985095,68.2777162 C71.7268744,68.812346 71.5554986,69.3467183 71.3825672,69.8803184 C71.3753077,69.9027126 71.3683075,69.9253642 71.3618258,69.9482732 L68.0732772,81.544101 C67.7821198,82.5708887 68.3846574,83.6380889 69.4188754,83.9274119 C69.5951772,83.9768336 69.7727755,84 69.9472625,84 C70.796882,84 71.5777956,83.4429761 71.8194329,82.5909663 L74.8694555,71.8360799 C78.597981,70.1011717 81.6002984,69.2898318 85.6557602,68.1950893 C87.7594565,67.6267396 90.1439394,66.9832276 93.0293271,66.1021311 C99.2673026,64.1973357 111.234052,56.2280838 116.741412,50.3111202 C121.558083,45.1357398 125.611211,41.2895976 130.293582,37.4509202 C130.299027,37.4465443 130.303175,37.4411388 130.308619,37.4365055 C130.376807,37.3791043 130.441624,37.3180993 130.501255,37.2519463 C130.504885,37.2478278 130.508774,37.2442241 130.512404,37.2403631 C130.571257,37.1742101 130.624666,37.1031663 130.674187,37.0290338 C130.683261,37.0153913 130.692076,37.0017489 130.700891,36.987849 C130.794227,36.8403561 130.867859,36.6799929 130.918676,36.5090761 C130.923602,36.4928596 130.928269,36.4769005 130.932676,36.4604266 C130.955232,36.3765126 130.9739,36.2910543 130.985048,36.2030218 C130.985567,36.1994182 130.985567,36.1960719 130.985826,36.1924682 C130.993086,36.1327503 130.998271,36.0722602 130.999826,36.0109979 C131.000604,35.9888611 130.99853,35.9672391 130.998271,35.9456171 Z M83.7869602,52.2135989 C88.3161037,47.0801755 95.2579903,43.2106095 104.419984,40.7127535 C106.882248,40.0414419 109.484256,39.4844179 112.165859,39.0447706 C105.352051,42.3253944 98.8369186,46.4343469 95.1960254,48.8490611 C89.3202467,52.7461694 82.9775272,57.4734081 78.293601,61.6778578 C79.6796449,58.1920823 81.3552906,54.9696319 83.7869602,52.2135989 Z M113.883247,47.6886804 C108.523151,53.4475974 96.9465994,60.8634291 91.885439,62.4086299 C89.0609792,63.2709359 86.7094232,63.9062109 84.6345056,64.4663237 C82.7571498,64.9731537 81.049355,65.4349379 79.3604866,65.967251 C80.1159921,65.2488342 81.0016498,64.4434147 82.0457199,63.5391517 C86.2474086,59.9004778 91.6852846,55.8244731 97.3577976,52.0622449 C107.179368,45.5481022 116.067576,40.9755638 122.588412,38.9932896 C119.756433,41.5827817 116.970863,44.3709902 113.883247,47.6886804 Z" id="Shape" fill="#000000"></path>
                </g>
                <text id="docz" font-family="ArcherPro-Bold, ArcherPro" font-size="150" font-weight="bold" letter-spacing="-10" fill="#292A35">
                    <tspan x="121.25" y="125">docz</tspan>
                </text>
            </g>
        </g>
    </g>
</svg>