<?xml version="1.0" encoding="iso-8859-1"?>
<!-- Generator: Adobe Illustrator 19.0.0, SVG Export Plug-In . SVG Version: 6.00 Build 0)  -->
<svg version="1.1" id="Capa_1" xmlns="http://www.w3.org/2000/svg" xmlns:xlink="http://www.w3.org/1999/xlink" x="0px" y="0px"
	 viewBox="0 0 512 512" style="enable-background:new 0 0 512 512;" xml:space="preserve">
<polygon style="fill:#A6E2E3;" points="502.373,467.891 467.884,502.38 199.237,233.733 199.237,233.72 233.726,199.244 "/>
<path style="fill:#FFA638;" d="M233.726,199.244l-34.489,34.476v0.013l-60.815-60.815c-9.524-9.524-9.524-24.965,0-34.489
	c4.762-4.762,11-7.149,17.238-7.149c6.251,0,12.489,2.387,17.251,7.149L233.726,199.244z"/>
<path d="M162.804,74.689c-5.316,0-9.627-4.31-9.627-9.627V9.627c0-5.316,4.31-9.627,9.627-9.627c5.316,0,9.627,4.31,9.627,9.627
	v55.435C172.431,70.379,168.121,74.689,162.804,74.689z"/>
<path d="M162.804,325.608c-5.316,0-9.627-4.31-9.627-9.627v-55.435c0-5.316,4.31-9.627,9.627-9.627c5.316,0,9.627,4.31,9.627,9.627
	v55.435C172.431,321.298,168.121,325.608,162.804,325.608z"/>
<path d="M93.69,103.317c-2.463,0-4.928-0.94-6.807-2.82l-39.2-39.198c-3.76-3.76-3.76-9.854,0-13.613c3.76-3.76,9.855-3.76,13.613,0
	l39.2,39.198c3.76,3.76,3.76,9.854,0,13.613C98.618,102.378,96.153,103.317,93.69,103.317z"/>
<path d="M65.062,172.432H9.627c-5.316,0-9.627-4.31-9.627-9.627s4.31-9.627,9.627-9.627h55.435c5.316,0,9.627,4.31,9.627,9.627
	S70.378,172.432,65.062,172.432z"/>
<path d="M315.981,172.432h-55.435c-5.316,0-9.627-4.31-9.627-9.627s4.31-9.627,9.627-9.627h55.435c5.316,0,9.627,4.31,9.627,9.627
	S321.297,172.432,315.981,172.432z"/>
<path d="M54.491,280.744c-2.463,0-4.928-0.94-6.807-2.82c-3.76-3.76-3.76-9.855,0-13.613l39.2-39.198c3.76-3.76,9.855-3.76,13.613,0
	c3.76,3.76,3.76,9.855,0,13.613l-39.2,39.198C59.418,279.803,56.954,280.744,54.491,280.744z"/>
<path d="M231.917,103.317c-2.463,0-4.928-0.94-6.807-2.82c-3.76-3.76-3.76-9.855,0-13.613l39.2-39.198
	c3.76-3.76,9.855-3.76,13.613,0c3.76,3.76,3.76,9.855,0,13.613l-39.2,39.198C236.845,102.377,234.38,103.317,231.917,103.317z"/>
<path d="M509.179,461.077L179.717,131.615c-6.424-6.424-14.966-9.963-24.051-9.963s-17.627,3.537-24.051,9.963
	c-6.424,6.424-9.963,14.966-9.963,24.051s3.537,17.627,9.963,24.051l291.759,291.759c3.76,3.76,9.855,3.76,13.613,0
	c3.76-3.759,3.76-9.855,0-13.613L212.845,233.721l20.876-20.876l255.038,255.038l-27.681,27.682c-3.759,3.76-3.759,9.855,0,13.613
	c1.879,1.879,4.344,2.82,6.807,2.82c2.463,0,4.928-0.94,6.807-2.82l34.489-34.489C512.94,470.932,512.94,464.836,509.179,461.077z
	 M199.232,220.108l-54.003-54.003c-2.788-2.788-4.323-6.495-4.323-10.438c0-3.943,1.535-7.65,4.323-10.438
	c2.788-2.788,6.495-4.323,10.438-4.323s7.649,1.535,10.438,4.323l54.003,54.003L199.232,220.108z"/>
<g>
</g>
<g>
</g>
<g>
</g>
<g>
</g>
<g>
</g>
<g>
</g>
<g>
</g>
<g>
</g>
<g>
</g>
<g>
</g>
<g>
</g>
<g>
</g>
<g>
</g>
<g>
</g>
<g>
</g>
</svg>
