<?xml version="1.0" encoding="iso-8859-1"?>
<!-- Generator: Adobe Illustrator 19.0.0, SVG Export Plug-In . SVG Version: 6.00 Build 0)  -->
<svg version="1.1" id="Capa_1" xmlns="http://www.w3.org/2000/svg" xmlns:xlink="http://www.w3.org/1999/xlink" x="0px" y="0px"
	 viewBox="0 0 512.001 512.001" style="enable-background:new 0 0 512.001 512.001;" xml:space="preserve">
<g>
	<path style="fill:#BCBCBC;" d="M262.481,229.858l-53.104-53.104l25.011-25.011l53.104,53.104c6.906,6.906,6.906,18.105,0,25.011
		l0,0C280.586,236.764,269.388,236.764,262.481,229.858z"/>
	<path style="fill:#BCBCBC;" d="M229.856,287.495c-3.451,3.451-7.975,5.177-12.498,5.177c-4.532,0.007-9.055-1.718-12.514-5.177
		l-53.107-53.107l25.012-25.012l53.107,53.107c4.771,4.771,6.242,11.578,4.438,17.602
		C233.48,282.797,232.002,285.349,229.856,287.495z"/>
</g>
<g>
	<path style="fill:#D8D8D8;" d="M234.293,280.085c-1.66,0.5-3.371,0.746-5.097,0.746c-4.524,0-9.048-1.726-12.507-5.184
		l-53.107-53.107l13.166-13.166l53.107,53.107C234.627,267.252,236.098,274.06,234.293,280.085z"/>
	<path style="fill:#D8D8D8;" d="M291.93,222.449c-1.66,0.5-3.371,0.746-5.097,0.746c-4.524,0-9.048-1.726-12.507-5.184
		l-53.107-53.107l13.166-13.166l53.107,53.107C292.263,209.616,293.735,216.424,291.93,222.449z"/>
	
		<rect x="33.111" y="56.956" transform="matrix(0.7071 0.7071 -0.7071 0.7071 79.2525 -32.823)" style="fill:#D8D8D8;" width="92.271" height="44.598"/>
</g>
<rect x="25.23" y="75.983" transform="matrix(0.7071 0.7071 -0.7071 0.7071 82.5145 -24.9428)" style="fill:#BCBCBC;" width="92.271" height="22.299"/>
<g>
	<path style="fill:#239999;" d="M234.082,127.191l-120.197,93.59l-50.866-50.866c-16.95-16.95-16.95-44.443,0-61.393l45.501-45.501
		c16.958-16.958,44.443-16.95,61.393,0L234.082,127.191z"/>
	<path style="fill:#239999;" d="M248.778,144.597L144.596,248.78c-8.106,8.106-21.242,8.106-29.355-0.007
		c-8.105-8.105-8.105-21.242,0-29.348l104.182-104.182c8.105-8.105,21.249-8.113,29.355-0.007c4.053,4.053,6.083,9.374,6.083,14.681
		C254.861,135.237,252.831,140.544,248.778,144.597z"/>
</g>
<g>
	<path style="fill:#45B8C4;" d="M248.778,144.597l-76.748,76.748c-8.105,8.105-21.249,8.113-29.363,0
		c-8.105-8.105-8.098-21.249,0.007-29.355l76.748-76.748c8.105-8.105,21.249-8.113,29.355-0.007
		c4.053,4.053,6.083,9.374,6.083,14.681C254.861,135.237,252.831,140.544,248.778,144.597z"/>
	<path style="fill:#45B8C4;" d="M220.779,113.886l-77.531,77.531l-50.866-50.866c-16.95-16.95-16.958-44.436,0-61.393l16.138-16.138
		c16.958-16.958,44.443-16.95,61.393,0L220.779,113.886z"/>
</g>
<rect x="394.568" y="409.53" transform="matrix(0.7071 0.7071 -0.7071 0.7071 431.8286 -178.8679)" style="fill:#D8D8D8;" width="74.518" height="44.598"/>
<rect x="386.675" y="428.568" transform="matrix(0.7071 0.7071 -0.7071 0.7071 435.0944 -170.9765)" style="fill:#BCBCBC;" width="74.518" height="22.299"/>
<g>
	<path style="fill:#D8A32E;" d="M450.531,387.516l-63.01,63.01c-21.655,21.655-56.753,21.648-78.401,0l-75.936-75.936
		l156.005-126.817l61.342,61.342C472.18,330.763,472.18,365.867,450.531,387.516z"/>
	<path style="fill:#D8A32E;" d="M392.126,244.836l-147.291,147.29c-8.106,8.106-21.249,8.113-29.355,0.007
		c-8.113-8.113-8.106-21.257,0-29.363L362.77,215.48c4.06-4.06,9.367-6.09,14.681-6.083c5.307,0,10.628,2.03,14.681,6.083
		C400.238,223.586,400.238,236.723,392.126,244.836z"/>
</g>
<g>
	<path style="fill:#FCC63D;" d="M392.126,244.836L278.808,358.153c-8.105,8.105-21.249,8.113-29.355,0.007
		c-8.113-8.113-8.105-21.257,0-29.363L362.77,215.48c4.06-4.06,9.367-6.09,14.681-6.083c5.307,0,10.628,2.03,14.681,6.083
		C400.238,223.586,400.238,236.723,392.126,244.836z"/>
	<path style="fill:#FCC63D;" d="M450.531,387.516l-36.917,36.917c-21.648,21.648-56.745,21.641-78.394-0.007l-61.342-61.342
		l115.311-115.311l61.342,61.342C472.18,330.763,472.18,365.867,450.531,387.516z"/>
</g>
<path d="M262.55,129.92c0-7.6-2.959-14.744-8.333-20.119c-11.092-11.093-29.141-11.093-40.236,0l-10.991,10.991
	c-3.003,3.003-3.003,7.872,0,10.874c3.003,3.003,7.872,3.003,10.874,0l10.991-10.991c5.097-5.097,13.39-5.096,18.486,0
	c2.469,2.469,3.828,5.752,3.828,9.243c0,3.491-1.36,6.774-3.828,9.243L139.165,243.341c-2.469,2.469-5.751,3.828-9.243,3.828
	c-3.492,0-6.774-1.36-9.243-3.828c-2.469-2.469-3.828-5.752-3.828-9.243s1.36-6.774,3.828-9.243l78.32-78.32
	c3.003-3.003,3.003-7.872,0-10.874c-3.003-3.003-7.872-3.003-10.874,0l-78.321,78.32c-11.093,11.093-11.093,29.143,0,40.236
	c5.374,5.374,12.518,8.333,20.119,8.333c7.6,0,14.744-2.959,20.117-8.333l104.178-104.178
	C259.591,144.665,262.55,137.52,262.55,129.92z"/>
<path d="M101.193,197.214l-32.735-32.735c-13.928-13.928-13.928-36.591,0-50.519l45.503-45.502
	c6.748-6.748,15.718-10.463,25.259-10.463c9.541,0,18.512,3.716,25.259,10.463l32.736,32.735c3.003,3.003,7.872,3.003,10.874,0
	c3.003-3.003,3.003-7.872,0-10.874l-32.736-32.735c-9.651-9.652-22.484-14.967-36.134-14.967s-26.483,5.316-36.135,14.967
	l-1.546,1.546L67.828,25.417c-1.442-1.443-3.398-2.253-5.437-2.253s-3.996,0.81-5.437,2.253L46.623,35.748L13.127,2.252
	c-3.003-3.003-7.872-3.003-10.874,0c-3.003,3.003-3.003,7.872,0,10.874l33.496,33.496l-10.33,10.331
	c-3.003,3.003-3.003,7.872,0,10.874l33.71,33.71l-1.546,1.546c-19.925,19.925-19.925,52.345,0,72.269l32.735,32.735
	c1.501,1.501,3.47,2.253,5.437,2.253s3.936-0.751,5.437-2.253C104.196,205.085,104.196,200.216,101.193,197.214z M70.004,90.663
	L41.73,62.391L62.391,41.73l28.274,28.274l-10.331,10.33L70.004,90.663z"/>
<path d="M405.902,230.156c0-7.6-2.959-14.744-8.333-20.117c-5.374-5.374-12.518-8.333-20.119-8.333
	c-7.6,0-14.744,2.959-20.117,8.333L210.039,357.332c-5.374,5.374-8.333,12.518-8.333,20.118c0,7.6,2.959,14.744,8.333,20.118
	c5.374,5.375,12.518,8.333,20.119,8.333c7.6,0,14.744-2.959,20.117-8.333l147.294-147.293
	C402.943,244.9,405.902,237.755,405.902,230.156z M386.694,239.399L239.4,386.692c-5.097,5.096-13.389,5.097-18.486,0
	c-5.097-5.097-5.097-13.389,0-18.486l147.294-147.293c2.469-2.469,5.751-3.828,9.243-3.828c3.492,0,6.774,1.36,9.243,3.828
	c2.469,2.469,3.829,5.751,3.829,9.243C390.522,233.648,389.163,236.93,386.694,239.399z"/>
<path d="M401.878,271.342l43.212,43.212c6.767,6.767,11.3,15.285,13.111,24.636c0.712,3.676,3.931,6.23,7.541,6.23
	c0.485,0,0.977-0.046,1.47-0.141c4.169-0.807,6.895-4.841,6.088-9.011c-2.395-12.374-8.39-23.644-17.335-32.587l-43.212-43.212
	c-3.003-3.003-7.872-3.003-10.874,0C398.874,263.47,398.874,268.339,401.878,271.342z"/>
<path d="M250.703,168.056c-3.003,3.003-3.003,7.872,0,10.874l31.353,31.353c3.897,3.897,3.897,10.239,0,14.137
	c-3.898,3.898-10.239,3.897-14.137,0l-31.353-31.353c-3.003-3.003-7.872-3.003-10.874,0c-3.003,3.003-3.003,7.872,0,10.874
	l31.353,31.353c4.947,4.947,11.445,7.42,17.943,7.42c6.497,0,12.996-2.474,17.943-7.42c9.894-9.893,9.894-25.992,0-35.886
	l-31.353-31.353C258.575,165.053,253.705,165.053,250.703,168.056z"/>
<path d="M235.295,292.929c4.793-4.792,7.432-11.166,7.432-17.943c0-6.777-2.639-13.151-7.432-17.943l-31.353-31.353
	c-3.002-3.003-7.871-3.003-10.874,0s-3.003,7.872,0,10.874l31.353,31.354c1.888,1.888,2.927,4.398,2.927,7.067
	c0,2.67-1.04,5.18-2.927,7.068c-3.898,3.898-10.239,3.897-14.137,0l-31.353-31.353c-3.003-3.003-7.872-3.003-10.874,0
	c-3.003,3.003-3.003,7.872,0,10.874l31.353,31.353c4.947,4.948,11.444,7.421,17.943,7.42
	C223.85,300.349,230.349,297.875,235.295,292.929z"/>
<path d="M509.748,498.873l-40.703-40.703l10.331-10.331c3.003-3.003,3.003-7.872,0-10.874l-33.711-33.71l10.3-10.3
	c7.43-7.43,12.925-16.653,15.89-26.671c1.205-4.073-1.12-8.351-5.191-9.556c-4.074-1.205-8.351,1.12-9.556,5.191
	c-2.239,7.567-6.395,14.539-12.018,20.162l-63.01,63.011c-9.019,9.018-21.008,13.985-33.762,13.985
	c-12.754,0-24.745-4.967-33.762-13.985l-43.212-43.212c-3.003-3.003-7.872-3.003-10.874,0c-3.003,3.003-3.003,7.872,0,10.874
	l43.212,43.212c11.922,11.923,27.776,18.489,44.638,18.489c16.861,0,32.714-6.566,44.638-18.489l10.3-10.3l33.711,33.711
	c1.442,1.443,3.398,2.253,5.437,2.253s3.996-0.81,5.437-2.253l10.33-10.331l40.703,40.703c1.501,1.501,3.47,2.253,5.437,2.253
	s3.936-0.751,5.437-2.253C512.751,506.744,512.751,501.875,509.748,498.873z M442.403,463.063l-28.274-28.274l10.331-10.33
	l10.331-10.331l28.273,28.273l-10.328,10.328c-0.001,0.001-0.002,0.001-0.003,0.002c-0.001,0.001-0.002,0.002-0.002,0.002
	L442.403,463.063z"/>
<g>
</g>
<g>
</g>
<g>
</g>
<g>
</g>
<g>
</g>
<g>
</g>
<g>
</g>
<g>
</g>
<g>
</g>
<g>
</g>
<g>
</g>
<g>
</g>
<g>
</g>
<g>
</g>
<g>
</g>
</svg>
