<?xml version="1.0" encoding="iso-8859-1"?>
<!-- Generator: Adobe Illustrator 19.0.0, SVG Export Plug-In . SVG Version: 6.00 Build 0)  -->
<svg version="1.1" id="Capa_1" xmlns="http://www.w3.org/2000/svg" xmlns:xlink="http://www.w3.org/1999/xlink" x="0px" y="0px"
	 viewBox="0 0 512.001 512.001" style="enable-background:new 0 0 512.001 512.001;" xml:space="preserve">
<g>
	<path style="fill:#FFC850;" d="M231.492,161.125L122.755,269.862l-107.2-9.449c-7.665-0.676-11.064-9.995-5.628-15.43l0,0
		c46.062-46.062,106.97-74.303,171.929-79.718L231.492,161.125z"/>
	<path style="fill:#FFC850;" d="M351.089,280.722L242.352,389.459l9.484,107.235c0.678,7.667,10.001,11.07,15.437,5.634l0,0
		c46.062-46.062,74.293-106.98,79.691-171.956L351.089,280.722z"/>
</g>
<g>
	<path style="fill:#F9B428;" d="M30.14,246.066L30.14,246.066c38.267-38.267,85.838-65.412,137.868-79.281
		c-59.732,8.032-115.308,35.425-158.08,78.197l0,0c-5.436,5.436-2.036,14.755,5.628,15.43l15.916,1.403
		C26.683,258.177,25.426,250.779,30.14,246.066z"/>
	<path style="fill:#F9B428;" d="M273.224,491.639l-10.811-122.241l-20.061,20.061l9.484,107.235
		c0.678,7.667,10.001,11.07,15.437,5.635l0,0c2.333-2.333,4.608-4.714,6.849-7.122C273.654,494.122,273.339,492.93,273.224,491.639z
		"/>
</g>
<path style="fill:#E4EAF8;" d="M495.171,8.303l-85.703,25.052l-63.313,18.506c-5.211,1.523-9.955,4.334-13.794,8.173
	L101.832,290.564c-2.923,2.923-2.923,7.662,0,10.585L148,347.318l16.936,16.936l45.68,45.68c3.193,3.193,8.37,3.192,11.563,0
	l128.909-129.212l100.456-100.171c4.283-4.27,7.417-9.553,9.114-15.358l43.293-148.109C505.521,11.717,500.539,6.734,495.171,8.303z
	"/>
<path style="fill:#D8DCE5;" d="M137.086,284.192L344.46,76.818c3.172-3.172,7.092-5.495,11.399-6.754l144.996-42.383
	c0.473-1.617,2.625-8.981,3.097-10.596c0.012-0.042,0.016-0.083,0.027-0.125c1.47-5.374-3.534-10.2-8.809-8.657L345.438,52.072
	c-4.741,1.386-9.057,3.944-12.55,7.437L101.832,290.565c-2.898,2.898-2.92,7.665,0,10.585l9.148,9.148L137.086,284.192z"/>
<circle style="fill:#707487;" cx="346.319" cy="165.944" r="42.49"/>
<path style="fill:#5B5D6E;" d="M336.27,135.897c5.734-5.734,12.699-9.483,20.044-11.255c-13.911-3.354-29.186,0.396-40.045,11.255
	c-16.593,16.593-16.593,43.496,0,60.09c10.859,10.859,26.134,14.609,40.045,11.255C324.27,199.514,312.763,159.403,336.27,135.897z"
	/>
<path style="fill:#707487;" d="M165.912,363.497l-17.154-17.154l-32.165-32.165L92.51,338.261c-4.355,4.354-4.354,11.48,0,15.835
	c6.551,6.551,25.475,25.475,32.825,32.825c7.071,7.071,25.704,25.704,32.825,32.825c4.355,4.355,11.48,4.355,15.835,0l24.083-24.083
	L165.912,363.497z"/>
<path style="fill:#5B5D6E;" d="M103.448,355.729l27.348-27.348l-14.203-14.203l-24.083,24.083c-4.355,4.354-4.354,11.48,0,15.835
	l7.563,7.563C100.636,359.483,101.752,357.424,103.448,355.729z"/>
<path style="fill:#C3C8D1;" d="M191.043,338.149l-16.936-16.936l-51.461-51.461l-20.813,20.813c-2.923,2.923-2.923,7.662,0,10.585
	l46.168,46.168l16.936,16.936l45.68,45.68c3.193,3.193,8.37,3.193,11.562,0l20.325-20.324L191.043,338.149z"/>
<path style="fill:#B0B3B7;" d="M101.832,301.149l9.148,9.148l26.105-26.105l-14.441-14.441l-20.813,20.813
	C98.91,293.487,98.909,298.226,101.832,301.149z"/>
<path style="fill:#FF5050;" d="M495.171,8.303l-85.703,25.052l69.433,69.433l25.052-85.703
	C505.521,11.717,500.539,6.733,495.171,8.303z"/>
<path style="fill:#ED3A3A;" d="M495.171,8.303l-28.139,8.225l-57.564,16.826l16.28,16.28l75.106-21.955l3.097-10.596
	C505.522,11.716,500.539,6.735,495.171,8.303z"/>
<path id="SVGCleanerId_0" style="fill:#FFC850;" d="M125.242,387.747l-0.734-0.734c-4.474-4.474-4.474-11.728,0-16.202
	l150.233-150.233c4.474-4.474,11.728-4.474,16.202,0l0.734,0.734c4.474,4.474,4.474,11.728,0,16.202L141.446,387.747
	C136.971,392.221,129.716,392.221,125.242,387.747z"/>
<g>
	<path id="SVGCleanerId_0_1_" style="fill:#FFC850;" d="M125.242,387.747l-0.734-0.734c-4.474-4.474-4.474-11.728,0-16.202
		l150.233-150.233c4.474-4.474,11.728-4.474,16.202,0l0.734,0.734c4.474,4.474,4.474,11.728,0,16.202L141.446,387.747
		C136.971,392.221,129.716,392.221,125.242,387.747z"/>
</g>
<path style="fill:#F9B428;" d="M134.755,376.946l150.233-150.233c2.291-2.291,5.31-3.4,8.312-3.346
	c-0.454-0.729-0.988-1.422-1.621-2.056l-0.734-0.734c-4.474-4.474-11.728-4.474-16.202,0L124.508,370.81
	c-4.474,4.474-4.474,11.728,0,16.202l0.734,0.734c2.183,2.184,5.029,3.293,7.891,3.345
	C130.38,386.671,130.913,380.787,134.755,376.946z"/>
<path d="M75.276,368.328c-2.929-2.929-7.678-2.929-10.606,0l-25.501,25.501c-2.929,2.929-2.929,7.678,0,10.606
	c2.929,2.929,7.678,2.929,10.606,0l25.501-25.501C78.205,376.006,78.205,371.257,75.276,368.328z"/>
<path d="M100.084,393.136c-2.929-2.929-7.678-2.929-10.606,0l-25.501,25.501c-2.929,2.929-2.929,7.678,0,10.606
	c2.929,2.929,7.678,2.929,10.606,0l25.501-25.501C103.013,400.814,103.013,396.065,100.084,393.136z"/>
<path d="M139.093,442.751l-25.501,25.501c-2.929,2.929-2.929,7.678,0,10.606c2.929,2.929,7.678,2.929,10.606,0l25.501-25.501
	c2.929-2.929,2.929-7.678,0-10.606C146.771,439.822,142.022,439.822,139.093,442.751z"/>
<path d="M124.891,417.944c-2.929-2.929-7.678-2.929-10.606,0l-25.501,25.501c-2.929,2.929-2.929,7.678,0,10.606
	c2.929,2.929,7.678,2.929,10.606,0l25.501-25.501C127.82,425.622,127.82,420.873,124.891,417.944z"/>
<path d="M493.313,0.604c-32.586,9.525-126.042,36.843-156.958,45.88c-1.209,0.353-2.309,1.005-3.199,1.896L228.265,153.271
	l-46.865,3.944C114.813,162.819,52.12,191.928,4.87,239.178c-9.945,9.945-3.733,26.967,10.262,28.189l91.08,7.956l-9.436,9.437
	c-5.856,5.854-5.859,15.335,0,21.193l9.109,9.109l-18.473,18.473c-7.235,7.234-7.235,19.007,0,26.241
	c7.907,7.907,56.866,56.866,64.815,64.815c7.234,7.235,19.007,7.235,26.241,0l18.472-18.472l8.62,8.62
	c6.12,6.121,16.069,6.1,22.17,0l8.948-8.948l7.956,91.079c0.566,6.479,4.714,11.886,10.826,14.11
	c6.094,2.219,12.753,0.761,17.362-3.849c29.075-29.074,51.06-63.391,65.347-101.998c1.438-3.885-0.546-8.199-4.431-9.637
	c-3.886-1.439-8.199,0.545-9.637,4.431c-13.53,36.563-34.352,69.063-61.886,96.597c-0.939,0.941-2.522,0.374-2.638-0.961
	l-9.051-103.622l91.792-91.792c-3.046,37.186-3.872,46.884-8.124,65.73c-0.912,4.041,1.625,8.055,5.666,8.966
	c4.039,0.911,8.055-1.625,8.966-5.666c5.192-23.011,5.588-33.947,9.904-85.443l104.891-104.891c0.891-0.89,1.542-1.99,1.896-3.199
	l20.828-71.253c0-0.001,0.001-0.002,0.001-0.002l25.052-85.704C514.629,7.635,504.332-2.623,493.313,0.604z M475.499,88.033
	l-51.531-51.531l72.815-21.285L475.499,88.033z M15.477,249.786c44.748-44.748,104.121-72.315,167.18-77.623l29.17-2.455
	l-91.767,91.767l-103.623-9.051C15.111,252.309,14.533,250.73,15.477,249.786z M286.254,232.077L185.986,332.346
	c-5.398,5.398-44.573,44.573-49.23,49.23c-1.747,1.746-4.577,1.753-6.33,0c-1.745-1.745-1.745-4.584,0-6.33
	c6.087-6.087,141.352-141.352,149.499-149.499c1.746-1.746,4.585-1.745,6.33,0C288,227.494,288.006,230.325,286.254,232.077z
	 M148.247,336.211c-16.185-16.185-37.23-37.21-40.865-40.844l15.509-15.509l40.855,40.855L148.247,336.211z M98.018,344.141
	l18.473-18.473c9.567,9.568,14.252,14.253,21.15,21.15l-18.188,18.188c-0.952,0.952-1.782,1.993-2.5,3.096l-18.934-18.932
	C96.656,347.806,96.656,345.504,98.018,344.141z M167.86,413.984c-0.895,0.894-1.959,1.028-2.514,1.028s-1.619-0.134-2.514-1.028
	l-18.933-18.934c1.103-0.718,2.143-1.548,3.096-2.5l18.188-18.188l21.15,21.15L167.86,413.984z M175.791,363.754l15.498-15.499
	l40.854,40.855l-15.021,15.021c-0.016,0.016-0.036,0.021-0.053,0.035c-0.267,0.218-0.656,0.212-0.903-0.035
	C211.691,399.656,180.492,368.456,175.791,363.754z M451.659,169.597c-9.922,9.922-200.109,200.109-208.907,208.907l-40.854-40.855
	l95.331-95.331c6.871-6.871,8.19-18.619-0.734-27.544c-7.408-7.408-19.399-7.409-26.81,0l-95.332,95.332l-40.855-40.855
	c8.329-8.329,199.184-199.184,208.907-208.907L407.552,41.3l63.148,63.149L451.659,169.597z"/>
<path d="M367.147,119.884c-3.775-1.703-8.217-0.026-9.922,3.749c-1.705,3.775-0.026,8.217,3.749,9.922
	c22.293,10.068,27.56,39.396,10.328,56.627c-13.643,13.642-35.84,13.642-49.482,0c-17.242-17.242-11.997-46.547,10.328-56.627
	c3.775-1.705,5.453-6.147,3.749-9.922c-1.705-3.775-6.148-5.453-9.922-3.749c-31.847,14.383-39.436,56.23-14.76,80.905
	c9.745,9.745,22.547,14.618,35.348,14.618c44.396,0,66.755-53.909,35.348-85.315C377.622,125.806,372.656,122.371,367.147,119.884z"
	/>
<g>
</g>
<g>
</g>
<g>
</g>
<g>
</g>
<g>
</g>
<g>
</g>
<g>
</g>
<g>
</g>
<g>
</g>
<g>
</g>
<g>
</g>
<g>
</g>
<g>
</g>
<g>
</g>
<g>
</g>
</svg>
