<?xml version="1.0" encoding="UTF-8"?>
<svg width="479px" height="481px" viewBox="0 0 479 481" version="1.1" xmlns="http://www.w3.org/2000/svg" xmlns:xlink="http://www.w3.org/1999/xlink">
    <!-- Generator: Sketch 50.2 (55047) - http://www.bohemiancoding.com/sketch -->
    <title>typescript</title>
    <desc>Created with Sketch.</desc>
    <defs></defs>
    <g id="Page-1" stroke="none" stroke-width="1" fill="none" fill-rule="evenodd">
        <path d="M471,240.5827 C471,261.5667 468.216,281.9067 462.989,301.2437 C450.773,346.4597 425.234,386.2027 390.832,416.0027 C350.143,451.2577 297.066,472.5827 239,472.5827 C110.87,472.5827 7,368.7127 7,240.5827 C7,112.4527 110.87,8.5827 239,8.5827 C367.13,8.5827 471,112.4527 471,240.5827" id="Fill-1" fill="#2193D8"></path>
        <path d="M239,8.5827 C182.101,8.5827 129.997,29.0777 89.638,63.0727 C122.522,45.1987 160.21,35.0447 200.27,35.0447 C328.401,35.0447 432.27,138.9147 432.27,267.0447 C432.27,288.0287 429.486,308.3687 424.259,327.7057 C412.044,372.9217 386.505,412.6647 352.103,442.4647 C351.293,443.1657 350.471,443.8517 349.652,444.5417 C364.421,436.5127 378.222,426.9287 390.832,416.0027 C425.234,386.2027 450.773,346.4597 462.989,301.2437 C468.216,281.9067 471,261.5667 471,240.5827 C471,112.4527 367.13,8.5827 239,8.5827" id="Fill-3" fill="#1681B7"></path>
        <path d="M383.769763,415.272207 C380.435274,415.451779 376.915347,415.539821 373.204887,415.539821 C350.355418,415.539821 330.706019,408.966883 314.158175,397.055284 C301.044606,387.615772 290.532896,375.332865 282.325484,361.399883 L279.558064,356.701883 L332.080703,325.145967 L334.672366,330.653228 C334.747386,330.812646 334.931957,331.181792 335.22453,331.730091 C335.733633,332.684183 336.34816,333.757826 337.066149,334.920348 C339.127456,338.257886 341.583769,341.598754 344.409904,344.698745 C352.239232,353.286741 361.255676,358.313196 371.384364,358.313196 C395.527287,358.313196 403.958174,351.599958 403.958174,333.900988 C403.958174,329.469952 398.180883,324.323462 385.100724,317.700482 C379.66228,314.946791 357.740696,304.987577 355.461732,303.906558 C341.914227,297.48035 331.971947,291.838455 323.654916,285.379528 C313.095188,277.178944 305.974543,268.111403 302.686844,257.590957 C295.217719,233.690185 297.038974,206.032109 308.176175,185.04608 C321.040527,160.80555 344.683838,147.585522 376.313862,149.847555 C395.438177,151.211862 411.939903,156.358347 425.95072,164.579112 C437.146053,171.147908 446.215694,179.345272 453.363987,188.4489 L456.899371,192.951348 L403.956415,231.20096 L401.540392,224.198942 C398.084564,214.183403 389.303192,208.135349 379.0444,207.622725 C369.30017,207.135812 361.073126,211.824896 358.47446,219.613551 C353.459243,234.672036 368.283052,245.788577 410.289801,259.790108 C430.330573,266.467032 447.284303,278.893013 458.397867,294.578312 L459.895348,296.691806 L459.219819,299.1924 C447.157374,343.84369 421.92132,383.753418 387.075018,413.937408 L385.651001,415.170897 L383.769763,415.272207 Z" id="Fill-5" stroke="#192123" stroke-width="11" fill="#F2F2F2"></path>
        <path d="M209.902832,213.260557 L209.902832,410.753556 L147.434273,410.753556 L147.434273,213.260557 L76.8146,213.260557 L76.8146,156.775806 L280.521529,156.775806 L280.521529,213.260557 L209.902832,213.260557 Z" id="Fill-7" stroke="#192123" stroke-width="11" fill="#F2F2F2"></path>
        <path d="M457.409011,148.439124 C445.496875,120.275505 428.445888,94.9843567 406.730965,73.2694346 C385.016043,51.5545124 359.724895,34.5035254 331.561276,22.5913888 C302.395164,10.255084 271.421311,3.9998 239.5005,3.9998 C207.578731,3.9998 176.604878,10.255084 147.438767,22.5913888 C126.040774,31.641587 106.306899,43.66575 88.5339645,58.4407825 C83.6689564,62.486179 83.3328773,68.7874225 84.4828231,70.4936702 C86.0492772,72.8194141 92.0469964,73.2579447 96.2312289,70.7521926 C134.910964,38.0730492 184.899617,18.3621543 239.5005,18.3621543 C362.18373,18.3621543 461.638246,117.81667 461.638246,240.4999 C461.638246,260.591876 458.972593,280.067228 453.966834,298.582218 C442.27109,341.876099 417.817745,379.929635 384.878165,408.462846 C345.917885,442.219165 295.098131,462.637646 239.5005,462.637646 C116.816312,462.637646 17.3627543,363.18313 17.3627543,240.4999 C17.3627543,194.20716 31.5297805,151.227336 55.7552421,115.644125 C57.3379736,111.078811 54.9729726,106.647546 52.7898947,105.573242 C50.6058594,104.498938 45.369345,105.573242 42.7123095,109.261494 C34.4826805,121.579607 27.4183172,134.662754 21.5910313,148.439124 C9.25472653,177.605236 3.0004,208.579089 3.0004,240.4999 C3.0004,272.420711 9.25472653,303.394564 21.5910313,332.560676 C33.503168,360.725252 50.5541549,386.015443 72.2690771,407.731323 C93.9839992,429.446245 119.275148,446.496275 147.438767,458.409369 C176.604878,470.744716 207.578731,477 239.5005,477 C268.440644,477 296.713417,471.83051 323.53272,461.634196 C349.439534,451.783536 373.2437,437.546613 394.282634,419.317913 C430.106176,388.28661 455.539033,347.831688 467.83225,302.32792 C473.251645,282.279989 476.0006,261.477555 476.0006,240.4999 C476.0006,208.579089 469.745316,177.605236 457.409011,148.439124" id="Fill-9" stroke="#192123" stroke-width="4" fill="#192123" transform="translate(239.500500, 240.499900) rotate(-10.000000) translate(-239.500500, -240.499900) "></path>
    </g>
</svg>